<mxfile host="app.diagrams.net" agent="Mozilla/5.0 (Windows NT 10.0; Win64; x64) AppleWebKit/537.36 (KHTML, like Gecko) Chrome/138.0.0.0 Safari/537.36" version="28.0.4">
  <diagram name="페이지-1" id="pJ2l8MtVM1wykz0mSk0O">
    <mxGraphModel dx="2037" dy="2230" grid="1" gridSize="10" guides="1" tooltips="1" connect="1" arrows="1" fold="1" page="1" pageScale="1" pageWidth="827" pageHeight="1169" math="0" shadow="0">
      <root>
        <mxCell id="0" />
        <mxCell id="1" parent="0" />
        <mxCell id="4C_lNbCFmUGSk_lYK4IK-27" value="" style="endArrow=classic;html=1;rounded=0;exitX=1;exitY=0;exitDx=0;exitDy=0;entryX=0;entryY=0.25;entryDx=0;entryDy=0;edgeStyle=orthogonalEdgeStyle;" edge="1" parent="1" source="4C_lNbCFmUGSk_lYK4IK-44" target="4C_lNbCFmUGSk_lYK4IK-36">
          <mxGeometry width="50" height="50" relative="1" as="geometry">
            <mxPoint x="319" y="323" as="sourcePoint" />
            <mxPoint x="839" y="423" as="targetPoint" />
          </mxGeometry>
        </mxCell>
        <mxCell id="4C_lNbCFmUGSk_lYK4IK-28" value="" style="endArrow=block;html=1;rounded=0;entryX=0.5;entryY=1;entryDx=0;entryDy=0;exitX=0.5;exitY=0;exitDx=0;exitDy=0;dashed=1;endFill=0;" edge="1" parent="1" source="4C_lNbCFmUGSk_lYK4IK-29" target="4C_lNbCFmUGSk_lYK4IK-36">
          <mxGeometry width="50" height="50" relative="1" as="geometry">
            <mxPoint x="409" y="333" as="sourcePoint" />
            <mxPoint x="694" y="453" as="targetPoint" />
          </mxGeometry>
        </mxCell>
        <mxCell id="4C_lNbCFmUGSk_lYK4IK-29" value="WalletServiceImpl" style="swimlane;fontStyle=0;childLayout=stackLayout;horizontal=1;startSize=30;horizontalStack=0;resizeParent=1;resizeParentMax=0;resizeLast=0;collapsible=1;marginBottom=0;whiteSpace=wrap;html=1;container=0;" vertex="1" parent="1">
          <mxGeometry x="796" y="280" width="320" height="97" as="geometry">
            <mxRectangle x="100" y="80" width="140" height="30" as="alternateBounds" />
          </mxGeometry>
        </mxCell>
        <mxCell id="4C_lNbCFmUGSk_lYK4IK-92" style="edgeStyle=orthogonalEdgeStyle;rounded=0;orthogonalLoop=1;jettySize=auto;html=1;entryX=0.5;entryY=0;entryDx=0;entryDy=0;" edge="1" parent="1" source="4C_lNbCFmUGSk_lYK4IK-31" target="4C_lNbCFmUGSk_lYK4IK-49">
          <mxGeometry relative="1" as="geometry" />
        </mxCell>
        <mxCell id="4C_lNbCFmUGSk_lYK4IK-93" style="edgeStyle=orthogonalEdgeStyle;rounded=0;orthogonalLoop=1;jettySize=auto;html=1;entryX=0.5;entryY=0;entryDx=0;entryDy=0;" edge="1" parent="1" source="4C_lNbCFmUGSk_lYK4IK-31" target="4C_lNbCFmUGSk_lYK4IK-69">
          <mxGeometry relative="1" as="geometry" />
        </mxCell>
        <mxCell id="4C_lNbCFmUGSk_lYK4IK-31" value="&lt;div&gt;&amp;nbsp; + sendAuthCode(userId: Long): void&lt;/div&gt;&lt;div&gt;&amp;nbsp; + verifyAuthCode(userId: Long, code: String): boolean&lt;/div&gt;&lt;div&gt;&amp;nbsp; + toggleGameWallet(vo: GameWalletVO): String&lt;/div&gt;&lt;div&gt;&amp;nbsp; + selectLogsByUserId(userId: Long): List&amp;lt;GameWalletLogVO&amp;gt;&lt;/div&gt;" style="rounded=0;whiteSpace=wrap;html=1;align=left;container=0;" vertex="1" parent="1">
          <mxGeometry x="796" y="377" width="320" height="80" as="geometry" />
        </mxCell>
        <mxCell id="4C_lNbCFmUGSk_lYK4IK-98" style="edgeStyle=orthogonalEdgeStyle;rounded=0;orthogonalLoop=1;jettySize=auto;html=1;entryX=0;entryY=0.75;entryDx=0;entryDy=0;" edge="1" parent="1" source="4C_lNbCFmUGSk_lYK4IK-33" target="4C_lNbCFmUGSk_lYK4IK-53">
          <mxGeometry relative="1" as="geometry" />
        </mxCell>
        <mxCell id="4C_lNbCFmUGSk_lYK4IK-100" style="edgeStyle=orthogonalEdgeStyle;rounded=0;orthogonalLoop=1;jettySize=auto;html=1;entryX=0;entryY=0.25;entryDx=0;entryDy=0;" edge="1" parent="1" source="4C_lNbCFmUGSk_lYK4IK-33" target="4C_lNbCFmUGSk_lYK4IK-61">
          <mxGeometry relative="1" as="geometry" />
        </mxCell>
        <mxCell id="4C_lNbCFmUGSk_lYK4IK-33" value="&lt;div&gt;&amp;nbsp; - walletMapper: WalletMapper&lt;/div&gt;&lt;div&gt;&amp;nbsp; - walletLogMapper: WalletLogMapper&lt;/div&gt;&lt;div&gt;&amp;nbsp; - mailService: MailService&lt;/div&gt;&lt;div&gt;&amp;nbsp; - emailAuthService: EmailAuthService&lt;/div&gt;" style="text;strokeColor=none;fillColor=none;align=left;verticalAlign=middle;spacingLeft=4;spacingRight=4;overflow=hidden;points=[[0,0.5],[1,0.5]];portConstraint=eastwest;rotatable=0;whiteSpace=wrap;html=1;container=0;" vertex="1" parent="1">
          <mxGeometry x="796" y="310" width="320" height="67" as="geometry" />
        </mxCell>
        <mxCell id="4C_lNbCFmUGSk_lYK4IK-34" value="" style="group" vertex="1" connectable="0" parent="1">
          <mxGeometry x="730" y="90" width="330" height="164.63" as="geometry" />
        </mxCell>
        <mxCell id="4C_lNbCFmUGSk_lYK4IK-35" value="&amp;lt;&amp;lt;interface&amp;gt;&amp;gt;&amp;nbsp;&lt;div&gt;WalletService&lt;/div&gt;" style="swimlane;fontStyle=0;childLayout=stackLayout;horizontal=1;startSize=30;horizontalStack=0;resizeParent=1;resizeParentMax=0;resizeLast=0;collapsible=1;marginBottom=0;whiteSpace=wrap;html=1;container=0;" vertex="1" parent="4C_lNbCFmUGSk_lYK4IK-34">
          <mxGeometry x="61" width="330" height="50" as="geometry">
            <mxRectangle x="100" y="80" width="140" height="30" as="alternateBounds" />
          </mxGeometry>
        </mxCell>
        <mxCell id="4C_lNbCFmUGSk_lYK4IK-36" value="&lt;div&gt;&amp;nbsp; + sendAuthCode(userId: Long): void&lt;/div&gt;&lt;div&gt;&amp;nbsp; + verifyAuthCode(userId: Long, code: String): boolean&lt;/div&gt;&lt;div&gt;&amp;nbsp; + toggleGameWallet(vo: GameWalletVO): String&lt;/div&gt;&lt;div&gt;&amp;nbsp; + selectLogsByUserId(userId: Long): List&amp;lt;GameWalletLogVO&amp;gt;&lt;/div&gt;" style="rounded=0;whiteSpace=wrap;html=1;align=left;container=0;" vertex="1" parent="4C_lNbCFmUGSk_lYK4IK-34">
          <mxGeometry x="61" y="50" width="330" height="80" as="geometry" />
        </mxCell>
        <mxCell id="4C_lNbCFmUGSk_lYK4IK-38" value="" style="group" vertex="1" connectable="0" parent="1">
          <mxGeometry x="70" y="420" width="250" height="370" as="geometry" />
        </mxCell>
        <mxCell id="4C_lNbCFmUGSk_lYK4IK-39" value="" style="group" vertex="1" connectable="0" parent="4C_lNbCFmUGSk_lYK4IK-38">
          <mxGeometry width="250" height="240" as="geometry" />
        </mxCell>
        <mxCell id="4C_lNbCFmUGSk_lYK4IK-40" value="GameWalletVO" style="swimlane;fontStyle=0;childLayout=stackLayout;horizontal=1;startSize=30;horizontalStack=0;resizeParent=1;resizeParentMax=0;resizeLast=0;collapsible=1;marginBottom=0;whiteSpace=wrap;html=1;container=0;" vertex="1" parent="4C_lNbCFmUGSk_lYK4IK-39">
          <mxGeometry x="10" y="-1.36" width="195.31" height="141.36" as="geometry">
            <mxRectangle x="100" y="80" width="140" height="30" as="alternateBounds" />
          </mxGeometry>
        </mxCell>
        <mxCell id="4C_lNbCFmUGSk_lYK4IK-41" value="&lt;div&gt;&amp;nbsp; - Long userId&lt;/div&gt;&lt;div&gt;&amp;nbsp; - String userName&lt;/div&gt;&lt;div&gt;&amp;nbsp; - Long balance&lt;/div&gt;&lt;div&gt;&amp;nbsp; - int logType&lt;/div&gt;&lt;div&gt;&amp;nbsp; - String result&lt;/div&gt;&lt;div&gt;&amp;nbsp; - LocalDateTime createdAt&lt;/div&gt;" style="text;strokeColor=none;fillColor=none;align=left;verticalAlign=middle;spacingLeft=4;spacingRight=4;overflow=hidden;points=[[0,0.5],[1,0.5]];portConstraint=eastwest;rotatable=0;whiteSpace=wrap;html=1;container=0;" vertex="1" parent="4C_lNbCFmUGSk_lYK4IK-39">
          <mxGeometry x="10" y="28.64" width="195.31" height="121.36" as="geometry" />
        </mxCell>
        <mxCell id="4C_lNbCFmUGSk_lYK4IK-42" value="" style="rounded=0;whiteSpace=wrap;html=1;align=left;container=0;" vertex="1" parent="4C_lNbCFmUGSk_lYK4IK-39">
          <mxGeometry x="10" y="140" width="195.31" height="20" as="geometry" />
        </mxCell>
        <mxCell id="4C_lNbCFmUGSk_lYK4IK-79" value="MemberVO" style="swimlane;fontStyle=0;childLayout=stackLayout;horizontal=1;startSize=30;horizontalStack=0;resizeParent=1;resizeParentMax=0;resizeLast=0;collapsible=1;marginBottom=0;whiteSpace=wrap;html=1;container=0;" vertex="1" parent="4C_lNbCFmUGSk_lYK4IK-38">
          <mxGeometry x="10" y="190" width="195.31" height="180" as="geometry">
            <mxRectangle x="100" y="80" width="140" height="30" as="alternateBounds" />
          </mxGeometry>
        </mxCell>
        <mxCell id="4C_lNbCFmUGSk_lYK4IK-80" value="&lt;div&gt;&amp;nbsp; - Long memberId&lt;/div&gt;&lt;div&gt;&amp;nbsp; - String email&lt;/div&gt;&lt;div&gt;&amp;nbsp; - boolean emailVerified&lt;/div&gt;&lt;div&gt;&amp;nbsp; - String username&lt;/div&gt;&lt;div&gt;&amp;nbsp; - String password&lt;/div&gt;&lt;div&gt;&amp;nbsp; - String name&lt;/div&gt;&lt;div&gt;&amp;nbsp; - boolean active&lt;/div&gt;&lt;div&gt;&amp;nbsp; - LocalDateTime createdAt&lt;/div&gt;&lt;div&gt;&amp;nbsp; - LocalDateTime updatedAt&lt;/div&gt;" style="text;strokeColor=none;fillColor=none;align=left;verticalAlign=middle;spacingLeft=4;spacingRight=4;overflow=hidden;points=[[0,0.5],[1,0.5]];portConstraint=eastwest;rotatable=0;whiteSpace=wrap;html=1;container=0;" vertex="1" parent="4C_lNbCFmUGSk_lYK4IK-38">
          <mxGeometry x="10" y="220" width="195.31" height="150" as="geometry" />
        </mxCell>
        <mxCell id="4C_lNbCFmUGSk_lYK4IK-43" value="" style="group" vertex="1" connectable="0" parent="1">
          <mxGeometry x="130" y="90" width="390" height="190" as="geometry" />
        </mxCell>
        <mxCell id="4C_lNbCFmUGSk_lYK4IK-44" value="&lt;div&gt;&amp;nbsp; + sendAuthCode(userId: Long): ResponseEntity&amp;lt;Object&amp;gt;&lt;/div&gt;&lt;div&gt;&amp;nbsp; + verifyAuthCode(userId: Long, code: String): ResponseEntity&amp;lt;?&amp;gt;&lt;/div&gt;&lt;div&gt;&amp;nbsp; + chargeWallet(userId: Long, amount: Long, userName: String, logType: int): ResponseEntity&amp;lt;String&amp;gt;&lt;/div&gt;&lt;div&gt;&amp;nbsp; + selectLogsByUserId(userId: Long): ResponseEntity&amp;lt;List&amp;lt;GameWalletLogVO&amp;gt;&amp;gt;&lt;/div&gt;" style="rounded=0;whiteSpace=wrap;html=1;align=left;container=0;" vertex="1" parent="4C_lNbCFmUGSk_lYK4IK-43">
          <mxGeometry y="93.24" width="390" height="96.76" as="geometry" />
        </mxCell>
        <mxCell id="4C_lNbCFmUGSk_lYK4IK-45" value="WalletController" style="swimlane;fontStyle=0;childLayout=stackLayout;horizontal=1;startSize=30;horizontalStack=0;resizeParent=1;resizeParentMax=0;resizeLast=0;collapsible=1;marginBottom=0;whiteSpace=wrap;html=1;container=0;" vertex="1" parent="4C_lNbCFmUGSk_lYK4IK-43">
          <mxGeometry width="390" height="93.24000000000001" as="geometry">
            <mxRectangle x="100" y="80" width="140" height="30" as="alternateBounds" />
          </mxGeometry>
        </mxCell>
        <mxCell id="4C_lNbCFmUGSk_lYK4IK-46" value="&amp;nbsp; - walletService: WalletService" style="text;strokeColor=none;fillColor=none;align=left;verticalAlign=middle;spacingLeft=4;spacingRight=4;overflow=hidden;points=[[0,0.5],[1,0.5]];portConstraint=eastwest;rotatable=0;whiteSpace=wrap;html=1;container=0;" vertex="1" parent="4C_lNbCFmUGSk_lYK4IK-43">
          <mxGeometry y="31.764705882352942" width="390" height="61.47529411764706" as="geometry" />
        </mxCell>
        <mxCell id="4C_lNbCFmUGSk_lYK4IK-48" value="" style="group" vertex="1" connectable="0" parent="1">
          <mxGeometry x="660" y="539" width="310" height="120" as="geometry" />
        </mxCell>
        <mxCell id="4C_lNbCFmUGSk_lYK4IK-49" value="&lt;div&gt;&amp;lt;&amp;lt;interface&amp;gt;&amp;gt;&lt;/div&gt;WalletMapper" style="swimlane;fontStyle=0;childLayout=stackLayout;horizontal=1;startSize=30;horizontalStack=0;resizeParent=1;resizeParentMax=0;resizeLast=0;collapsible=1;marginBottom=0;whiteSpace=wrap;html=1;container=0;" vertex="1" parent="4C_lNbCFmUGSk_lYK4IK-48">
          <mxGeometry width="310" height="50" as="geometry">
            <mxRectangle x="100" y="80" width="140" height="30" as="alternateBounds" />
          </mxGeometry>
        </mxCell>
        <mxCell id="4C_lNbCFmUGSk_lYK4IK-51" value="&lt;div&gt;&amp;nbsp; + findMemberEmailById(userId: Long): MemberVO&lt;/div&gt;&lt;div&gt;&amp;nbsp; + toggleGameWallet(param: Map&amp;lt;String, Object&amp;gt;): void&lt;/div&gt;" style="rounded=0;whiteSpace=wrap;html=1;align=left;container=0;" vertex="1" parent="4C_lNbCFmUGSk_lYK4IK-48">
          <mxGeometry y="50" width="310" height="60" as="geometry" />
        </mxCell>
        <mxCell id="4C_lNbCFmUGSk_lYK4IK-58" value="" style="group" vertex="1" connectable="0" parent="1">
          <mxGeometry x="1230" y="-20" width="380" height="406" as="geometry" />
        </mxCell>
        <mxCell id="4C_lNbCFmUGSk_lYK4IK-59" value="" style="group" vertex="1" connectable="0" parent="4C_lNbCFmUGSk_lYK4IK-58">
          <mxGeometry x="130" y="446" width="310" height="150" as="geometry" />
        </mxCell>
        <mxCell id="4C_lNbCFmUGSk_lYK4IK-60" value="EmailAuthService" style="swimlane;fontStyle=0;childLayout=stackLayout;horizontal=1;startSize=30;horizontalStack=0;resizeParent=1;resizeParentMax=0;resizeLast=0;collapsible=1;marginBottom=0;whiteSpace=wrap;html=1;container=0;" vertex="1" parent="4C_lNbCFmUGSk_lYK4IK-59">
          <mxGeometry width="309.99245454471696" height="50" as="geometry">
            <mxRectangle x="100" y="80" width="140" height="30" as="alternateBounds" />
          </mxGeometry>
        </mxCell>
        <mxCell id="4C_lNbCFmUGSk_lYK4IK-61" value="&lt;div&gt;&amp;nbsp; + saveAuthCode(email: String, code: String): void&lt;/div&gt;&lt;div&gt;&amp;nbsp; + verifyAuthCode(email: String, code: String): boolean&lt;/div&gt;&lt;div&gt;&amp;nbsp; + removeAuthCode(email: String): void&lt;/div&gt;" style="rounded=0;whiteSpace=wrap;html=1;align=left;container=0;" vertex="1" parent="4C_lNbCFmUGSk_lYK4IK-59">
          <mxGeometry y="50" width="310.00000000000006" height="100" as="geometry" />
        </mxCell>
        <mxCell id="4C_lNbCFmUGSk_lYK4IK-52" value="" style="group" vertex="1" connectable="0" parent="4C_lNbCFmUGSk_lYK4IK-58">
          <mxGeometry x="140" y="206" width="290" height="160" as="geometry" />
        </mxCell>
        <mxCell id="4C_lNbCFmUGSk_lYK4IK-104" value="" style="group" vertex="1" connectable="0" parent="4C_lNbCFmUGSk_lYK4IK-52">
          <mxGeometry x="-10" width="290" height="120" as="geometry" />
        </mxCell>
        <mxCell id="4C_lNbCFmUGSk_lYK4IK-53" value="MailService" style="swimlane;fontStyle=0;childLayout=stackLayout;horizontal=1;startSize=30;horizontalStack=0;resizeParent=1;resizeParentMax=0;resizeLast=0;collapsible=1;marginBottom=0;whiteSpace=wrap;html=1;container=0;" vertex="1" parent="4C_lNbCFmUGSk_lYK4IK-104">
          <mxGeometry width="290" height="50" as="geometry">
            <mxRectangle x="100" y="80" width="140" height="30" as="alternateBounds" />
          </mxGeometry>
        </mxCell>
        <mxCell id="4C_lNbCFmUGSk_lYK4IK-54" value="&lt;div&gt;&amp;nbsp; + sendSimpleMailMessage(): void&lt;/div&gt;&lt;div&gt;&amp;nbsp; + sendMimeMessage(request: EmailRequest): void&lt;/div&gt;&lt;div&gt;&amp;nbsp; + generateAuthCode(): String&lt;/div&gt;" style="rounded=0;whiteSpace=wrap;html=1;align=left;container=0;" vertex="1" parent="4C_lNbCFmUGSk_lYK4IK-104">
          <mxGeometry y="50" width="290" height="70" as="geometry" />
        </mxCell>
        <mxCell id="4C_lNbCFmUGSk_lYK4IK-68" value="" style="group" vertex="1" connectable="0" parent="1">
          <mxGeometry x="990" y="540" width="210" height="120" as="geometry" />
        </mxCell>
        <mxCell id="4C_lNbCFmUGSk_lYK4IK-69" value="&lt;div&gt;&amp;lt;&amp;lt;interface&amp;gt;&amp;gt;&lt;/div&gt;WalletLogMapper" style="swimlane;fontStyle=0;childLayout=stackLayout;horizontal=1;startSize=30;horizontalStack=0;resizeParent=1;resizeParentMax=0;resizeLast=0;collapsible=1;marginBottom=0;whiteSpace=wrap;html=1;container=0;" vertex="1" parent="4C_lNbCFmUGSk_lYK4IK-68">
          <mxGeometry width="209.99999999999997" height="50" as="geometry">
            <mxRectangle x="100" y="80" width="140" height="30" as="alternateBounds" />
          </mxGeometry>
        </mxCell>
        <mxCell id="4C_lNbCFmUGSk_lYK4IK-70" value="&amp;nbsp; + selectLogsByUserId(userId: Long): List&amp;lt;GameWalletLogVO&amp;gt;" style="rounded=0;whiteSpace=wrap;html=1;align=left;container=0;" vertex="1" parent="4C_lNbCFmUGSk_lYK4IK-68">
          <mxGeometry y="50" width="209.99999999999997" height="60" as="geometry" />
        </mxCell>
        <mxCell id="4C_lNbCFmUGSk_lYK4IK-82" value="EmailRequest" style="swimlane;fontStyle=0;childLayout=stackLayout;horizontal=1;startSize=30;horizontalStack=0;resizeParent=1;resizeParentMax=0;resizeLast=0;collapsible=1;marginBottom=0;whiteSpace=wrap;html=1;container=0;" vertex="1" parent="1">
          <mxGeometry x="1361" y="620" width="195.31" height="141.36" as="geometry">
            <mxRectangle x="100" y="80" width="140" height="30" as="alternateBounds" />
          </mxGeometry>
        </mxCell>
        <mxCell id="4C_lNbCFmUGSk_lYK4IK-83" value="&lt;div&gt;&amp;nbsp; - String mailTo&lt;/div&gt;&lt;div&gt;&amp;nbsp; - String username&lt;/div&gt;&lt;div&gt;&amp;nbsp; - String mailType&lt;/div&gt;&lt;div&gt;&amp;nbsp; - String authCode&lt;/div&gt;&lt;div&gt;&amp;nbsp; - String name&lt;/div&gt;&lt;div&gt;&amp;nbsp; - String password&lt;/div&gt;" style="text;strokeColor=none;fillColor=none;align=left;verticalAlign=middle;spacingLeft=4;spacingRight=4;overflow=hidden;points=[[0,0.5],[1,0.5]];portConstraint=eastwest;rotatable=0;whiteSpace=wrap;html=1;container=0;" vertex="1" parent="1">
          <mxGeometry x="1361" y="650" width="195.31" height="100" as="geometry" />
        </mxCell>
        <mxCell id="4C_lNbCFmUGSk_lYK4IK-84" value="" style="rounded=0;whiteSpace=wrap;html=1;align=left;container=0;" vertex="1" parent="1">
          <mxGeometry x="1361" y="750" width="195.31" height="20" as="geometry" />
        </mxCell>
        <mxCell id="4C_lNbCFmUGSk_lYK4IK-89" value="GameWalletLogVO" style="swimlane;fontStyle=0;childLayout=stackLayout;horizontal=1;startSize=30;horizontalStack=0;resizeParent=1;resizeParentMax=0;resizeLast=0;collapsible=1;marginBottom=0;whiteSpace=wrap;html=1;container=0;" vertex="1" parent="1">
          <mxGeometry x="310" y="420" width="195.31" height="141.36" as="geometry">
            <mxRectangle x="100" y="80" width="140" height="30" as="alternateBounds" />
          </mxGeometry>
        </mxCell>
        <mxCell id="4C_lNbCFmUGSk_lYK4IK-90" value="&lt;div&gt;&amp;nbsp; - Long logId&lt;/div&gt;&lt;div&gt;&amp;nbsp; - Long userId&lt;/div&gt;&lt;div&gt;&amp;nbsp; - String userName&lt;/div&gt;&lt;div&gt;&amp;nbsp; - int logType&lt;/div&gt;&lt;div&gt;&amp;nbsp; - Long amount&lt;/div&gt;&lt;div&gt;&amp;nbsp; - LocalDateTime createdAt&lt;/div&gt;" style="text;strokeColor=none;fillColor=none;align=left;verticalAlign=middle;spacingLeft=4;spacingRight=4;overflow=hidden;points=[[0,0.5],[1,0.5]];portConstraint=eastwest;rotatable=0;whiteSpace=wrap;html=1;container=0;" vertex="1" parent="1">
          <mxGeometry x="310" y="450" width="195.31" height="121.36" as="geometry" />
        </mxCell>
        <mxCell id="4C_lNbCFmUGSk_lYK4IK-91" value="" style="rounded=0;whiteSpace=wrap;html=1;align=left;container=0;" vertex="1" parent="1">
          <mxGeometry x="310" y="561.36" width="195.31" height="20" as="geometry" />
        </mxCell>
        <mxCell id="4C_lNbCFmUGSk_lYK4IK-103" style="edgeStyle=orthogonalEdgeStyle;rounded=0;orthogonalLoop=1;jettySize=auto;html=1;entryX=0.5;entryY=1;entryDx=0;entryDy=0;" edge="1" parent="1" source="4C_lNbCFmUGSk_lYK4IK-81" target="4C_lNbCFmUGSk_lYK4IK-51">
          <mxGeometry relative="1" as="geometry" />
        </mxCell>
        <mxCell id="4C_lNbCFmUGSk_lYK4IK-81" value="" style="rounded=0;whiteSpace=wrap;html=1;align=left;container=0;" vertex="1" parent="1">
          <mxGeometry x="80" y="790" width="195.31" height="20" as="geometry" />
        </mxCell>
        <mxCell id="4C_lNbCFmUGSk_lYK4IK-101" style="edgeStyle=orthogonalEdgeStyle;rounded=0;orthogonalLoop=1;jettySize=auto;html=1;entryX=0.5;entryY=0;entryDx=0;entryDy=0;" edge="1" parent="1" source="4C_lNbCFmUGSk_lYK4IK-44" target="4C_lNbCFmUGSk_lYK4IK-40">
          <mxGeometry relative="1" as="geometry" />
        </mxCell>
        <mxCell id="4C_lNbCFmUGSk_lYK4IK-102" style="edgeStyle=orthogonalEdgeStyle;rounded=0;orthogonalLoop=1;jettySize=auto;html=1;entryX=0.5;entryY=0;entryDx=0;entryDy=0;" edge="1" parent="1" source="4C_lNbCFmUGSk_lYK4IK-44" target="4C_lNbCFmUGSk_lYK4IK-89">
          <mxGeometry relative="1" as="geometry" />
        </mxCell>
        <mxCell id="4C_lNbCFmUGSk_lYK4IK-105" style="edgeStyle=orthogonalEdgeStyle;rounded=0;orthogonalLoop=1;jettySize=auto;html=1;entryX=1;entryY=0.5;entryDx=0;entryDy=0;" edge="1" parent="1" source="4C_lNbCFmUGSk_lYK4IK-54" target="4C_lNbCFmUGSk_lYK4IK-83">
          <mxGeometry relative="1" as="geometry">
            <Array as="points">
              <mxPoint x="1730" y="271" />
              <mxPoint x="1730" y="700" />
            </Array>
          </mxGeometry>
        </mxCell>
      </root>
    </mxGraphModel>
  </diagram>
</mxfile>
